<?xml version="1.0" encoding="utf-8"?>
<!-- Generator: Adobe Illustrator 21.0.0, SVG Export Plug-In . SVG Version: 6.00 Build 0)  -->
<svg version="1.1" id="Layer_1" xmlns="http://www.w3.org/2000/svg" xmlns:xlink="http://www.w3.org/1999/xlink" x="0px" y="0px"
	 viewBox="0 0 1366 768" style="enable-background:new 0 0 1366 768;" xml:space="preserve">
<style type="text/css">
	.st0{fill:#D0D9D2;}
	.st1{fill:#E19B17;}
</style>
<g>
	<rect x="0.5" y="0.5" class="st0" width="1365" height="767"/>
	<path d="M1365,1v766H1V1H1365 M1366,0H0v768h1366V0L1366,0z"/>
</g>
<g>
	<path class="st1" d="M683.5,666.5c-75.6,0-146.7-29.4-200.1-82.9c-53.5-53.5-82.9-124.5-82.9-200.1c0-75.6,29.4-146.7,82.9-200.1
		s124.5-82.9,200.1-82.9c75.6,0,146.7,29.4,200.1,82.9c53.5,53.5,82.9,124.5,82.9,200.1s-29.4,146.7-82.9,200.1
		C830.2,637.1,759.1,666.5,683.5,666.5z"/>
	<path d="M683.5,101c38.1,0,75.1,7.5,110,22.2c33.6,14.2,63.9,34.6,89.8,60.5c25.9,25.9,46.3,56.2,60.5,89.8
		c14.7,34.8,22.2,71.8,22.2,110s-7.5,75.1-22.2,110c-14.2,33.6-34.6,63.9-60.5,89.8c-25.9,25.9-56.2,46.3-89.8,60.5
		c-34.8,14.7-71.8,22.2-110,22.2s-75.1-7.5-110-22.2c-33.6-14.2-63.9-34.6-89.8-60.5c-25.9-25.9-46.3-56.2-60.5-89.8
		c-14.7-34.8-22.2-71.8-22.2-110s7.5-75.1,22.2-110c14.2-33.6,34.6-63.9,60.5-89.8c25.9-25.9,56.2-46.3,89.8-60.5
		C608.4,108.5,645.4,101,683.5,101 M683.5,100C526.9,100,400,226.9,400,383.5S526.9,667,683.5,667S967,540.1,967,383.5
		S840.1,100,683.5,100L683.5,100z"/>
</g>
<g>
	<path class="st0" d="M683.5,641.5c-68.9,0-133.7-26.8-182.4-75.6s-75.6-113.5-75.6-182.4s26.8-133.7,75.6-182.4
		s113.5-75.6,182.4-75.6s133.7,26.8,182.4,75.6s75.6,113.5,75.6,182.4s-26.8,133.7-75.6,182.4S752.4,641.5,683.5,641.5z"/>
	<path d="M683.5,126c34.8,0,68.5,6.8,100.2,20.2c30.7,13,58.2,31.5,81.8,55.2c23.6,23.6,42.2,51.2,55.2,81.8
		C934.2,315,941,348.7,941,383.5s-6.8,68.5-20.2,100.2c-13,30.7-31.5,58.2-55.2,81.8c-23.6,23.6-51.2,42.2-81.8,55.2
		C752,634.2,718.3,641,683.5,641s-68.5-6.8-100.2-20.2c-30.7-13-58.2-31.5-81.8-55.2c-23.6-23.6-42.2-51.2-55.2-81.8
		C432.8,452,426,418.3,426,383.5s6.8-68.5,20.2-100.2c13-30.7,31.5-58.2,55.2-81.8c23.6-23.6,51.2-42.2,81.8-55.2
		C615,132.8,648.7,126,683.5,126 M683.5,125C540.7,125,425,240.7,425,383.5S540.7,642,683.5,642S942,526.3,942,383.5
		S826.3,125,683.5,125L683.5,125z"/>
</g>
</svg>
